<svg width="15" height="38" viewBox="0 0 15 38" fill="none" xmlns="http://www.w3.org/2000/svg">
<path d="M7.9375 13.9062C6.27083 13.9688 5.36458 15.7292 5.21875 19.1875L7.21875 19.2812C8.05208 19.3229 8.67708 19.2708 9.09375 19.125C9.67708 18.8958 9.96875 18.2917 9.96875 17.3125C9.94792 15.0833 9.27083 13.9479 7.9375 13.9062ZM13.7812 23.7812C13.6562 24.1146 13.4896 24.4375 13.2812 24.75C12.2188 26.4583 10.4688 27.3125 8.03125 27.3125C6.65625 27.3125 5.42708 27.0312 4.34375 26.4688C2.07292 25.2812 0.9375 23.1771 0.9375 20.1562C0.9375 18.3021 1.4375 16.75 2.4375 15.5C3.75 13.8958 5.58333 13.0938 7.9375 13.0938C9.22917 13.0938 10.3854 13.3125 11.4062 13.75C13.2188 14.5625 14.125 15.8542 14.125 17.625C14.125 17.9792 14.0625 18.3021 13.9375 18.5938C13.3958 19.7604 11.4479 20.2917 8.09375 20.1875L5.21875 20.0938C5.23958 21.3021 5.34375 22.3438 5.53125 23.2188C6.01042 25.3438 7.08333 26.4062 8.75 26.4062C9.27083 26.4062 9.78125 26.3125 10.2812 26.125C11.5312 25.6667 12.4479 24.8021 13.0312 23.5312L13.7812 23.7812Z" fill="white"/>
<rect y="9" width="15" height="2" fill="#FCA311"/>
</svg>
