<svg width="63" height="38" viewBox="0 0 63 38" fill="none" xmlns="http://www.w3.org/2000/svg">
<path d="M7.9375 13.9062C6.27083 13.9688 5.36458 15.7292 5.21875 19.1875L7.21875 19.2812C8.05208 19.3229 8.67708 19.2708 9.09375 19.125C9.67708 18.8958 9.96875 18.2917 9.96875 17.3125C9.94792 15.0833 9.27083 13.9479 7.9375 13.9062ZM13.7812 23.7812C13.6562 24.1146 13.4896 24.4375 13.2812 24.75C12.2188 26.4583 10.4688 27.3125 8.03125 27.3125C6.65625 27.3125 5.42708 27.0312 4.34375 26.4688C2.07292 25.2812 0.9375 23.1771 0.9375 20.1562C0.9375 18.3021 1.4375 16.75 2.4375 15.5C3.75 13.8958 5.58333 13.0938 7.9375 13.0938C9.22917 13.0938 10.3854 13.3125 11.4062 13.75C13.2188 14.5625 14.125 15.8542 14.125 17.625C14.125 17.9792 14.0625 18.3021 13.9375 18.5938C13.3958 19.7604 11.4479 20.2917 8.09375 20.1875L5.21875 20.0938C5.23958 21.3021 5.34375 22.3438 5.53125 23.2188C6.01042 25.3438 7.08333 26.4062 8.75 26.4062C9.27083 26.4062 9.78125 26.3125 10.2812 26.125C11.5312 25.6667 12.4479 24.8021 13.0312 23.5312L13.7812 23.7812ZM22.0625 26.1875C22.1875 26.1875 22.3021 26.1979 22.4062 26.2188C22.6771 26.2604 22.8125 26.5208 22.8125 27H15.5V26.1875C15.6667 26.1875 15.8229 26.1771 15.9688 26.1562C16.8646 26.0521 17.3125 25.5208 17.3125 24.5625V14.375H15.5V13.5625H21.0625L21.2188 16C21.4062 15.625 21.6562 15.2604 21.9688 14.9062C23.0312 13.6979 24.3229 13.0938 25.8438 13.0938C26.3854 13.0938 26.9062 13.1771 27.4062 13.3438C29.2396 13.9896 30.1562 15.6042 30.1562 18.1875V26.1875H31.1875C31.3125 26.1875 31.4375 26.1979 31.5625 26.2188C31.8333 26.2604 31.9688 26.5208 31.9688 27H24.75V26.1875C25.0417 26.1875 25.2917 26.1562 25.5 26.0938C25.9583 25.9479 26.1875 25.4375 26.1875 24.5625V17.6562C26.1875 17.3646 26.1667 17.0833 26.125 16.8125C25.9167 15.4167 25.2188 14.7188 24.0312 14.7188C23.7188 14.7188 23.4167 14.7917 23.125 14.9375C22.0625 15.4583 21.4583 16.5417 21.3125 18.1875L21.2812 26.1875H22.0625ZM39.7188 14.3438H37.5938L41.0312 23.7812L44.7188 14.3438H42.1562V13.5625H47.2188C47.2188 13.9167 47.1979 14.1562 47.1562 14.2812C47.1146 14.3229 46.9271 14.3438 46.5938 14.3438C46.4688 14.3438 46.3438 14.3542 46.2188 14.375C45.8854 14.4375 45.6146 14.7292 45.4062 15.25L40.875 27.1562H39.75C39.3125 27.1562 38.9792 27.0833 38.75 26.9375C38.4792 26.75 38.1146 26.0625 37.6562 24.875L33.7188 14.3438H32.5V13.5625H39.7188V14.3438ZM51.3438 32C51.5521 32 51.7708 31.9583 52 31.875C52.9167 31.5417 53.875 30.1354 54.875 27.6562L48.7812 14.3438H47.4688V13.5625H54.8125V14.3438H52.9062L56.6875 23.0625L60.0938 14.3438H57.75V13.5625H62.5938C62.5938 13.6667 62.5833 13.7708 62.5625 13.875C62.5208 14.1875 62.2708 14.3438 61.8125 14.3438C61.4792 14.3854 61.1354 14.6875 60.7812 15.25L56.0938 27.4062C55.6979 28.4479 55.2812 29.3333 54.8438 30.0625C53.6979 32.0833 52.25 33.0938 50.5 33.0938C49.7292 33.0938 49.0521 32.9375 48.4688 32.625C47.6354 32.1875 47.2188 31.625 47.2188 30.9375C47.2188 30.7917 47.2396 30.6354 47.2812 30.4688C47.4896 29.8229 47.9688 29.5 48.7188 29.5C49.0729 29.5 49.3854 29.5938 49.6562 29.7812C49.8854 29.9688 50.1458 30.4271 50.4375 31.1562C50.6667 31.7188 50.9688 32 51.3438 32Z" fill="#14123D"/>
<rect y="9" width="63" height="2" fill="#FCA311"/>
</svg>
